
<svg xmlns="http://www.w3.org/2000/svg" viewBox="1300 1500 1000 1200" width="300" height="300">
    <defs>
        <linearGradient id="loginGradient" x1="0%" y1="0%" x2="0%" y2="100%">
            <stop offset="0%" stop-color="#000000"/>
            <stop offset="100%" stop-color="#007BFF"/>
        </linearGradient>
        <style>
            @import url('https://fonts.googleapis.com/css2?family=Poppins:wght@700&amp;display=swap');
        </style>
    </defs>

    <g transform="translate(250, 3800) scale(0.1, -0.1)">
        <path fill="url(#loginGradient)" d="M14895 21829 c-274 -19 -543 -103 -785 -246 -178 -104 -411 -297
-394 -324 4 -7 3 -9 -4 -5 -13 8 -112 -105 -180 -206 -58 -87 -149 -257 -185
-348 -35 -88 -72 -223 -95 -350 -69 -366 -6 -836 154 -1154 167 -332 467 -628
812 -801 107 -53 313 -124 457 -157 l100 -22 1179 -3 c960 -3 1177 -1 1168 9
-6 7 -188 193 -404 413 -217 220 -428 438 -470 483 -42 46 -93 98 -114 115
l-38 32 -326 0 c-290 0 -341 -3 -475 -24 -116 -18 -171 -22 -245 -17 -211 13
-380 89 -532 238 -96 94 -127 141 -171 259 -52 137 -59 178 -59 319 1 152 22
245 87 376 90 184 290 337 515 395 34 9 104 14 185 13 126 0 133 -1 251 -42
l120 -42 265 0 c158 0 280 4 303 11 29 8 69 41 164 134 72 72 121 128 117 134
-3 6 -3 10 2 9 9 -3 811 801 805 807 -8 8 -2087 2 -2207 -6z m2195 -9 c0 -5
-10 -14 -21 -21 -15 -8 -19 -8 -15 0 4 6 1 11 -6 11 -9 0 -9 3 2 10 19 13 40
13 40 0z"/>
    </g>

    <text x="1800" y="2500"
          text-anchor="middle"
          fill="#212529"
          font-family="'Poppins', sans-serif"
          font-weight="bold"
          font-size="500">POS</text>
</svg>
